<?xml version="1.0" encoding="utf-8"?>
<!-- Generator: Adobe Illustrator 27.1.1, SVG Export Plug-In . SVG Version: 6.00 Build 0)  -->
<svg version="1.1" id="圖層_1" xmlns="http://www.w3.org/2000/svg" xmlns:xlink="http://www.w3.org/1999/xlink" x="0px" y="0px"
	 viewBox="0 0 134.8 38" style="enable-background:new 0 0 134.8 38;" xml:space="preserve">
<style type="text/css">
	.st0{stroke:#000000;stroke-width:0.4;stroke-miterlimit:10;}
	.st1{fill:none;stroke:#000000;stroke-width:0.4;stroke-miterlimit:10;}
</style>
<path class="st0" d="M0.4,18.1l8-8l1.5,1.5L9.3,24.3l6.6-6.7l1.1,1.1l-8,8l-1.4-1.4l0.8-13l-6.8,6.9L0.4,18.1z"/>
<path class="st1" d="M2,17.3l11.9,0.8l-6.8-6.7l1.3-1.3l8.6,8.6l-1.2,1.2L4,19.2l6.5,6L9,26.7l-8.2-8.2L2,17.3z"/>
<g>
	<path d="M24.3,25.5v-2.2c0.2,0.2,0.5,0.4,0.9,0.6c0.3,0.2,0.7,0.3,1.1,0.4c0.4,0.1,0.8,0.2,1.2,0.3c0.4,0.1,0.7,0.1,1.1,0.1
		c1.1,0,2-0.2,2.5-0.6s0.8-1,0.8-1.8c0-0.4-0.1-0.8-0.3-1.1c-0.2-0.3-0.4-0.6-0.8-0.9c-0.3-0.3-0.7-0.5-1.2-0.7s-0.9-0.5-1.5-0.8
		c-0.6-0.3-1.1-0.6-1.5-0.8s-0.9-0.6-1.2-0.9s-0.6-0.7-0.8-1.2s-0.3-0.9-0.3-1.5c0-0.7,0.2-1.3,0.5-1.9c0.3-0.5,0.7-1,1.2-1.3
		c0.5-0.3,1.1-0.6,1.8-0.8c0.7-0.2,1.3-0.3,2-0.3c1.6,0,2.7,0.2,3.4,0.6v2.1c-0.9-0.6-2.1-1-3.6-1c-0.4,0-0.8,0-1.2,0.1
		c-0.4,0.1-0.8,0.2-1.1,0.4c-0.3,0.2-0.6,0.4-0.8,0.7c-0.2,0.3-0.3,0.7-0.3,1.1c0,0.4,0.1,0.8,0.2,1c0.1,0.3,0.4,0.6,0.7,0.8
		s0.7,0.5,1.1,0.7c0.4,0.2,0.9,0.5,1.5,0.7c0.6,0.3,1.1,0.6,1.6,0.9s0.9,0.6,1.3,1c0.4,0.4,0.7,0.8,0.9,1.2c0.2,0.5,0.3,1,0.3,1.6
		c0,0.8-0.2,1.4-0.5,2c-0.3,0.5-0.7,1-1.2,1.3c-0.5,0.3-1.1,0.6-1.8,0.7s-1.4,0.2-2.1,0.2c-0.2,0-0.6,0-0.9-0.1
		c-0.4,0-0.7-0.1-1.1-0.2s-0.7-0.2-1.1-0.3C24.8,25.8,24.5,25.7,24.3,25.5z"/>
	<path d="M42,26.1c-0.4,0.2-1,0.4-1.7,0.4c-2,0-3-1.1-3-3.3v-6.7h-1.9v-1.5h1.9v-2.8l1.8-0.6v3.3H42v1.5h-2.8v6.3
		c0,0.8,0.1,1.3,0.4,1.6c0.3,0.3,0.7,0.5,1.3,0.5c0.5,0,0.8-0.1,1.2-0.4V26.1z"/>
	<path d="M53.5,26.2h-1.8v-1.8h0c-0.7,1.4-1.9,2-3.5,2c-2.7,0-4-1.6-4-4.8v-6.7h1.8v6.4c0,2.4,0.9,3.6,2.7,3.6c0.9,0,1.6-0.3,2.2-1
		s0.9-1.5,0.9-2.5v-6.5h1.8V26.2z"/>
	<path d="M66.8,26.2H65v-1.9h0c-0.8,1.5-2.1,2.2-3.9,2.2c-1.4,0-2.5-0.5-3.4-1.5c-0.8-1-1.3-2.4-1.3-4.1c0-1.9,0.5-3.4,1.4-4.5
		c0.9-1.1,2.2-1.7,3.8-1.7c1.5,0,2.7,0.6,3.4,1.8h0v-7h1.8V26.2z M65,21.1v-1.7c0-0.9-0.3-1.7-0.9-2.3c-0.6-0.6-1.4-0.9-2.3-0.9
		c-1.1,0-2,0.4-2.6,1.2c-0.6,0.8-0.9,1.9-0.9,3.3c0,1.3,0.3,2.3,0.9,3.1c0.6,0.8,1.4,1.1,2.4,1.1c1,0,1.8-0.4,2.4-1.1
		C64.6,23.1,65,22.2,65,21.1z"/>
	<path d="M71.3,12.1c-0.3,0-0.6-0.1-0.8-0.3c-0.2-0.2-0.3-0.5-0.3-0.8s0.1-0.6,0.3-0.8c0.2-0.2,0.5-0.3,0.8-0.3
		c0.3,0,0.6,0.1,0.8,0.3c0.2,0.2,0.3,0.5,0.3,0.8c0,0.3-0.1,0.6-0.3,0.8C72,11.9,71.7,12.1,71.3,12.1z M72.2,26.2h-1.8V14.9h1.8
		V26.2z"/>
	<path d="M80.6,26.4c-1.7,0-3-0.5-4-1.6c-1-1.1-1.5-2.4-1.5-4.2c0-1.9,0.5-3.4,1.6-4.4c1-1.1,2.4-1.6,4.2-1.6c1.7,0,3,0.5,3.9,1.6
		s1.4,2.5,1.4,4.3c0,1.8-0.5,3.2-1.5,4.3C83.7,25.9,82.3,26.4,80.6,26.4z M80.7,16.2c-1.2,0-2.1,0.4-2.8,1.2s-1,1.9-1,3.3
		c0,1.3,0.3,2.4,1,3.2c0.7,0.8,1.6,1.2,2.7,1.2c1.2,0,2.1-0.4,2.7-1.1c0.6-0.8,0.9-1.8,0.9-3.2c0-1.4-0.3-2.5-0.9-3.3
		C82.8,16.5,81.9,16.2,80.7,16.2z"/>
	<path d="M97.3,20.2v6h-1.8V10.4h4.3c1.7,0,3,0.4,3.9,1.2c0.9,0.8,1.4,2,1.4,3.5c0,1.5-0.5,2.7-1.5,3.7c-1,1-2.4,1.4-4.2,1.4H97.3z
		 M97.3,12.1v6.5h1.9c1.3,0,2.2-0.3,2.9-0.9c0.7-0.6,1-1.4,1-2.5c0-2.1-1.2-3.1-3.7-3.1H97.3z"/>
	<path d="M118.4,10.8l-9.2,13.7h9v1.7h-11.8v-0.5l9.2-13.6h-8.4v-1.7h11.3V10.8z"/>
	<path d="M133.7,26.2h-2.3l-8.1-12.6c-0.2-0.3-0.4-0.6-0.5-1h-0.1c0.1,0.3,0.1,1.1,0.1,2.2v11.4H121V10.4h2.4l7.9,12.4
		c0.3,0.5,0.5,0.9,0.6,1.1h0c-0.1-0.5-0.1-1.2-0.1-2.3V10.4h1.8V26.2z"/>
</g>
</svg>
