<?xml version="1.0" encoding="utf-8"?>
<!-- Generator: Adobe Illustrator 27.1.1, SVG Export Plug-In . SVG Version: 6.00 Build 0)  -->
<svg version="1.1" id="圖層_1" xmlns="http://www.w3.org/2000/svg" xmlns:xlink="http://www.w3.org/1999/xlink" x="0px" y="0px"
	 viewBox="0 0 134.8 38" style="enable-background:new 0 0 134.8 38;" xml:space="preserve">
<style type="text/css">
	.st0{fill:#FFFFFF;stroke:#FFFFFF;stroke-width:0.4;stroke-miterlimit:10;}
	.st1{fill:none;stroke:#FFFFFF;stroke-width:0.4;stroke-miterlimit:10;}
	.st2{fill:#FFFFFF;}
</style>
<g>
	<path class="st0" d="M0.7,19l8-8l1.5,1.5L9.6,25.3l6.6-6.7l1.1,1.1l-8,8l-1.4-1.4l0.8-13l-6.8,6.9L0.7,19z"/>
	<path class="st1" d="M2.3,18.3l11.9,0.8l-6.8-6.7l1.3-1.3l8.6,8.6l-1.2,1.2L4.3,20.1l6.5,6l-1.5,1.5l-8.2-8.2L2.3,18.3z"/>
	<g>
		<path class="st2" d="M24.6,26.5v-2.2c0.2,0.2,0.5,0.4,0.9,0.6c0.3,0.2,0.7,0.3,1.1,0.4c0.4,0.1,0.8,0.2,1.2,0.3
			c0.4,0.1,0.7,0.1,1.1,0.1c1.1,0,2-0.2,2.5-0.6s0.8-1,0.8-1.8c0-0.4-0.1-0.8-0.3-1.1c-0.2-0.3-0.4-0.6-0.8-0.9
			c-0.3-0.3-0.7-0.5-1.2-0.7s-0.9-0.5-1.5-0.8c-0.6-0.3-1.1-0.6-1.5-0.8s-0.9-0.6-1.2-0.9s-0.6-0.7-0.8-1.2s-0.3-0.9-0.3-1.5
			c0-0.7,0.2-1.3,0.5-1.9c0.3-0.5,0.7-1,1.2-1.3c0.5-0.3,1.1-0.6,1.8-0.8c0.7-0.2,1.3-0.3,2-0.3c1.6,0,2.7,0.2,3.4,0.6v2.1
			c-0.9-0.6-2.1-1-3.6-1c-0.4,0-0.8,0-1.2,0.1c-0.4,0.1-0.8,0.2-1.1,0.4c-0.3,0.2-0.6,0.4-0.8,0.7c-0.2,0.3-0.3,0.7-0.3,1.1
			c0,0.4,0.1,0.8,0.2,1c0.1,0.3,0.4,0.6,0.7,0.8s0.7,0.5,1.1,0.7c0.4,0.2,0.9,0.5,1.5,0.7c0.6,0.3,1.1,0.6,1.6,0.9s0.9,0.6,1.3,1
			c0.4,0.4,0.7,0.8,0.9,1.2c0.2,0.5,0.3,1,0.3,1.6c0,0.8-0.2,1.4-0.5,2c-0.3,0.5-0.7,1-1.2,1.3c-0.5,0.3-1.1,0.6-1.8,0.7
			s-1.4,0.2-2.1,0.2c-0.2,0-0.6,0-0.9-0.1c-0.4,0-0.7-0.1-1.1-0.2s-0.7-0.2-1.1-0.3C25.1,26.7,24.8,26.6,24.6,26.5z"/>
		<path class="st2" d="M42.3,27c-0.4,0.2-1,0.4-1.7,0.4c-2,0-3-1.1-3-3.3v-6.7h-1.9v-1.5h1.9v-2.8l1.8-0.6v3.3h2.8v1.5h-2.8v6.3
			c0,0.8,0.1,1.3,0.4,1.6c0.3,0.3,0.7,0.5,1.3,0.5c0.5,0,0.8-0.1,1.2-0.4V27z"/>
		<path class="st2" d="M53.8,27.1H52v-1.8h0c-0.7,1.4-1.9,2-3.5,2c-2.7,0-4-1.6-4-4.8v-6.7h1.8v6.4c0,2.4,0.9,3.6,2.7,3.6
			c0.9,0,1.6-0.3,2.2-1s0.9-1.5,0.9-2.5v-6.5h1.8V27.1z"/>
		<path class="st2" d="M67.1,27.1h-1.8v-1.9h0c-0.8,1.5-2.1,2.2-3.9,2.2c-1.4,0-2.5-0.5-3.4-1.5c-0.8-1-1.3-2.4-1.3-4.1
			c0-1.9,0.5-3.4,1.4-4.5c0.9-1.1,2.2-1.7,3.8-1.7c1.5,0,2.7,0.6,3.4,1.8h0v-7h1.8V27.1z M65.3,22v-1.7c0-0.9-0.3-1.7-0.9-2.3
			c-0.6-0.6-1.4-0.9-2.3-0.9c-1.1,0-2,0.4-2.6,1.2c-0.6,0.8-0.9,1.9-0.9,3.3c0,1.3,0.3,2.3,0.9,3.1c0.6,0.8,1.4,1.1,2.4,1.1
			c1,0,1.8-0.4,2.4-1.1C65,24,65.3,23.1,65.3,22z"/>
		<path class="st2" d="M71.7,13c-0.3,0-0.6-0.1-0.8-0.3c-0.2-0.2-0.3-0.5-0.3-0.8s0.1-0.6,0.3-0.8c0.2-0.2,0.5-0.3,0.8-0.3
			c0.3,0,0.6,0.1,0.8,0.3c0.2,0.2,0.3,0.5,0.3,0.8c0,0.3-0.1,0.6-0.3,0.8C72.3,12.9,72,13,71.7,13z M72.6,27.1h-1.8V15.8h1.8V27.1z"
			/>
		<path class="st2" d="M80.9,27.4c-1.7,0-3-0.5-4-1.6c-1-1.1-1.5-2.4-1.5-4.2c0-1.9,0.5-3.4,1.6-4.4c1-1.1,2.4-1.6,4.2-1.6
			c1.7,0,3,0.5,3.9,1.6s1.4,2.5,1.4,4.3c0,1.8-0.5,3.2-1.5,4.3C84,26.8,82.6,27.4,80.9,27.4z M81.1,17.1c-1.2,0-2.1,0.4-2.8,1.2
			s-1,1.9-1,3.3c0,1.3,0.3,2.4,1,3.2c0.7,0.8,1.6,1.2,2.7,1.2c1.2,0,2.1-0.4,2.7-1.1c0.6-0.8,0.9-1.8,0.9-3.2c0-1.4-0.3-2.5-0.9-3.3
			C83.1,17.5,82.2,17.1,81.1,17.1z"/>
		<path class="st2" d="M97.7,21.2v6h-1.8V11.3h4.3c1.7,0,3,0.4,3.9,1.2c0.9,0.8,1.4,2,1.4,3.5c0,1.5-0.5,2.7-1.5,3.7
			c-1,1-2.4,1.4-4.2,1.4H97.7z M97.7,13v6.5h1.9c1.3,0,2.2-0.3,2.9-0.9c0.7-0.6,1-1.4,1-2.5c0-2.1-1.2-3.1-3.7-3.1H97.7z"/>
		<path class="st2" d="M118.8,11.8l-9.2,13.7h9v1.7h-11.8v-0.5l9.2-13.6h-8.4v-1.7h11.3V11.8z"/>
		<path class="st2" d="M134,27.1h-2.3l-8.1-12.6c-0.2-0.3-0.4-0.6-0.5-1h-0.1c0.1,0.3,0.1,1.1,0.1,2.2v11.4h-1.8V11.3h2.4l7.9,12.4
			c0.3,0.5,0.5,0.9,0.6,1.1h0c-0.1-0.5-0.1-1.2-0.1-2.3V11.3h1.8V27.1z"/>
	</g>
</g>
</svg>
